# xmcd CD database file
#
# Track frame offsets:
#	150
#	21300
#	44287
#
# Disc length: 870 seconds
#
# Revision: 2
# Processed by: cddbd v1.5PL3 Copyright (c) Steve Scherf et al.
# Submitted via: CDex 1.51
#
DISCID=1e036403
DTITLE=辛島美登里 - 愛すること
DYEAR=1995
DGENRE=JPop
TTITLE0=愛すること
TTITLE1=明日へのターン
TTITLE2=愛すること(Instrumental)
EXTD=YEAR: 1995
EXTT0=
EXTT1=
EXTT2=
PLAYORDER=
